<?xml version="1.0" encoding="UTF-8" standalone="no"?>
<!-- Created with Inkscape (http://www.inkscape.org/) -->
<svg width="128.15324mm" height="127.83357mm" viewBox="0 0 128.15324 127.83357" version="1.1" id="svg1" xml:space="preserve" xmlns="http://www.w3.org/2000/svg" xmlns:svg="http://www.w3.org/2000/svg"><defs id="defs1"/><g id="layer1" transform="translate(232.01072,-6.3592739)"><g id="layer1-9" transform="matrix(0.4405093,0,0,0.4405093,-571.61456,78.627983)"><path id="path940" style="display:inline;fill:#3069ac;fill-opacity:1;stroke:none;stroke-width:0.264583px;stroke-linecap:butt;stroke-linejoin:miter;stroke-opacity:1" d="m 772.25916,-80.263283 c -0.0168,0.138817 -0.0221,0.274881 -0.0235,0.409415 -2.00247,15.462987 -1.436,30.897692 -0.0317,45.249063 1.4255,14.566312 4.27545,28.01831 10.02185,42.094581 5.7463,14.076268 14.38844,28.775843 22.80754,40.936724 8.419,12.160883 16.61457,21.782461 27.61727,31.626952 11.00264,9.844492 24.8114,19.91116 39.22047,27.629008 14.40909,7.71786 29.41759,13.08699 36.92236,15.77124 l 7.50553,2.68407 0.36367,-0.36484 0.10088,0.36484 7.50554,-2.68407 c 7.50475,-2.68427 22.51327,-8.05337 36.92235,-15.77124 14.40907,-7.717841 28.21784,-17.78451 39.22048,-27.629008 11.0027,-9.844494 19.1982,-19.466072 27.6172,-31.626952 8.4191,-12.160879 17.0613,-26.860455 22.8076,-40.936724 5.7464,-14.0762697 8.5975,-27.528269 10.023,-42.094581 1.4168,-14.478852 1.4229,-30.057668 -0.6441,-45.658478 h -0.6123 z"/><path style="fill:#cf3422;fill-opacity:1;stroke:none;stroke-width:0.264583px;stroke-linecap:butt;stroke-linejoin:miter;stroke-opacity:1" d="m 915.54865,-164.05717 -5.52575,1.572 c -5.52603,1.57157 -16.57802,4.71433 -28.70109,6.28592 -12.12307,1.57159 -25.31622,1.57159 -38.02404,0.003 -12.70782,-1.56901 -24.91812,-4.70412 -31.03428,-6.27456 l -6.1159,-1.57044 -3.591,5.62032 c -3.59079,5.62046 -10.77242,16.86153 -16.72559,30.16767 -5.49082,12.27272 -9.9314,26.30068 -12.36824,39.972242 h 285.50454 c -2.3263,-13.077392 -6.0611,-25.957982 -10.9368,-37.583752 -5.8353,-13.91388 -13.2967,-26.0313 -20.7579,-38.14858 l -5.2219,1.52446 c -5.2221,1.52445 -15.6665,4.57334 -28.87423,6.09781 -13.20768,1.52448 -29.17809,1.5244 -42.57672,-0.007 -13.39863,-1.53163 -24.22417,-4.59504 -29.63746,-6.12676 z" id="path847"/><g aria-label="iPhone" id="text856" style="font-size:61.9881px;line-height:1.25;font-family:'Myriad Pro';-inkscape-font-specification:'Myriad Pro';letter-spacing:-0.690562px;word-spacing:0px;fill:#ffffff;stroke:#ffffff;stroke-width:0.857504;stroke-miterlimit:4;stroke-dasharray:none;stroke-opacity:1" transform="matrix(0.98308582,0,0,0.98308582,14.111706,-1.6698667)"><path d="m 840.4492,-99.407738 v -30.002242 h -5.45495 v 30.002242 z m -2.72748,-41.841962 c -1.98362,0 -3.40934,1.48771 -3.40934,3.40934 0,1.85964 1.36374,3.34736 3.28537,3.34736 2.16958,0 3.53332,-1.48772 3.47133,-3.34736 0,-1.92163 -1.30175,-3.40934 -3.34736,-3.40934 z" style="fill:#ffffff;stroke:#ffffff;stroke-width:0.857504;stroke-miterlimit:4;stroke-dasharray:none;stroke-opacity:1" id="path870"/><path d="m 848.99482,-99.407738 h 5.39296 v -16.736782 c 1.23976,0.30994 2.72748,0.37192 4.33917,0.37192 5.26899,0 9.9181,-1.5497 12.76955,-4.58711 2.10759,-2.16959 3.22338,-5.14502 3.22338,-8.92629 0,-3.71929 -1.36374,-6.7567 -3.6573,-8.74032 -2.47952,-2.23157 -6.38477,-3.47134 -11.71575,-3.47134 -4.33917,0 -7.74851,0.37193 -10.35201,0.80585 z m 5.39296,-37.378822 c 0.92982,-0.24795 2.72748,-0.43392 5.08303,-0.43392 5.95085,0 9.8561,2.66549 9.8561,8.18243 0,5.76489 -3.96723,8.92629 -10.47598,8.92629 -1.79766,0 -3.28537,-0.12398 -4.46315,-0.43392 z" style="fill:#ffffff;stroke:#ffffff;stroke-width:0.857504;stroke-miterlimit:4;stroke-dasharray:none;stroke-opacity:1" id="path872"/><path d="m 880.78593,-99.407738 h 5.45495 v -18.100522 c 0,-1.0538 0.062,-1.85965 0.37193,-2.6035 0.99181,-2.97543 3.78127,-5.45496 7.31459,-5.45496 5.14502,0 6.94267,4.09122 6.94267,8.92629 v 17.232692 h 5.45495 v -17.852572 c 0,-10.35201 -6.44676,-12.83154 -10.47599,-12.83154 -2.0456,0 -3.96723,0.61988 -5.57892,1.54971 -1.67368,0.92982 -3.03742,2.29356 -3.90525,3.84326 h -0.12398 v -18.72041 h -5.45495 z" style="fill:#ffffff;stroke:#ffffff;stroke-width:0.857504;stroke-miterlimit:4;stroke-dasharray:none;stroke-opacity:1" id="path874"/><path d="m 927.20622,-130.09185 c -8.30641,0 -14.87715,5.88887 -14.87715,15.93094 0,9.48418 6.2608,15.435041 14.38124,15.435041 7.25261,0 14.93913,-4.835071 14.93913,-15.930941 0,-9.17424 -5.82688,-15.43504 -14.44322,-15.43504 z m -0.12398,4.09122 c 6.44676,0 8.98828,6.44676 8.98828,11.52978 0,6.75671 -3.90525,11.65377 -9.11226,11.65377 -5.33097,0 -9.11225,-4.95905 -9.11225,-11.52979 0,-5.7029 2.78947,-11.65376 9.23623,-11.65376 z" style="fill:#ffffff;stroke:#ffffff;stroke-width:0.857504;stroke-miterlimit:4;stroke-dasharray:none;stroke-opacity:1" id="path876"/><path d="m 947.83955,-99.407738 h 5.45495 v -18.038532 c 0,-0.92983 0.12397,-1.85965 0.37193,-2.54152 0.92982,-3.03741 3.71928,-5.57893 7.31459,-5.57893 5.14502,0 6.94267,4.02923 6.94267,8.8643 v 17.294682 h 5.45495 V -117.3223 c 0,-10.29002 -6.44676,-12.76955 -10.59996,-12.76955 -4.95905,0 -8.43038,2.78947 -9.9181,5.64092 h -0.12397 l -0.30994,-4.95905 h -4.83508 c 0.18597,2.47953 0.24796,5.02104 0.24796,8.12044 z" style="fill:#ffffff;stroke:#ffffff;stroke-width:0.857504;stroke-miterlimit:4;stroke-dasharray:none;stroke-opacity:1" id="path878"/><path d="m 1005.6656,-113.41705 c 0.062,-0.55789 0.186,-1.42572 0.186,-2.54151 0,-5.51694 -2.6035,-14.13329 -12.39761,-14.13329 -8.74032,0 -14.0713,7.12863 -14.0713,16.1789 0,9.05026 5.51694,15.187081 14.75317,15.187081 4.77308,0 8.05844,-1.053797 9.98004,-1.921631 l -0.9298,-3.90525 c -2.0456,0.86783 -4.40113,1.5497 -8.30638,1.5497 -5.45495,0 -10.16605,-3.03741 -10.29003,-10.414 z m -21.01392,-3.90525 c 0.43392,-3.78127 2.85145,-8.8643 8.36839,-8.8643 6.13683,0 7.62453,5.39297 7.56253,8.8643 z" style="fill:#ffffff;stroke:#ffffff;stroke-width:0.857504;stroke-miterlimit:4;stroke-dasharray:none;stroke-opacity:1" id="path880"/></g><path d="m 827.9118,50.750309 c 0.20388,-6.014649 0.96845,-11.519583 2.29373,-16.514819 1.32525,-4.995201 3.41509,-9.939447 6.26951,-14.832756 2.14079,-3.87381 4.79131,-7.441823 7.95158,-10.704048 3.16021,-3.364082 6.52434,-6.3714081 10.09239,-9.02198447 0.91745,-0.50966591 1.73299,-1.01937993 2.44663,-1.52914943 0.71357,-0.6116062 1.42717,-1.1722951 2.14082,-1.6820667 l 5.50494,-2.9053836 5.04618,-2.9053836 4.8933,-2.7524712 c 2.03881,-1.325197 3.66989,-2.956291 4.89329,-4.893278 1.32519,-2.0388 1.98782,-4.128634 1.98789,-6.269516 -7e-5,-1.936846 -0.50978,-3.720855 -1.52916,-5.352024 -1.01949,-1.732955 -2.39572,-3.211135 -4.1287,-4.434537 -1.63115,-1.223234 -3.56807,-2.191695 -5.81078,-2.905384 -2.24281,-0.713517 -4.63846,-1.070316 -7.18699,-1.070404 -5.19916,8.8e-5 -9.4298,1.223404 -12.69195,3.66996 -3.16028,2.446722 -5.14816,6.014734 -5.96368,10.704048 l -16.209,-3.517042 c 1.73303,-8.563156 5.70882,-15.240438 11.92737,-20.031866 6.21852,-4.893178 13.86426,-7.339814 22.93726,-7.33992 4.89321,1.06e-4 9.4297,0.815648 13.60942,2.44664 4.28157,1.631192 7.95152,3.822974 11.00988,6.575343 3.16018,2.752563 5.65778,6.014746 7.49283,9.786563 1.83491,3.670041 2.75241,7.594854 2.75247,11.774452 -6e-5,3.975862 -0.91756,7.900674 -2.75247,11.774453 -1.73311,3.7719638 -4.28169,7.1360919 -7.64574,10.0923897 -0.81562,0.61171398 -1.5802,1.17240184 -2.29373,1.68206881 -0.61172,0.50976419 -1.27435,0.91753899 -1.98789,1.22331909 l -5.0462,3.2112139 -5.50493,2.9053837 -5.0462,2.9053878 c -2.44669,1.427242 -4.63847,2.956392 -6.57534,4.587447 -1.83502,1.529183 -3.56806,3.211248 -5.19912,5.046195 -1.52918,1.835009 -3.00736,3.873873 -4.43453,6.1166 -1.3253,2.242776 -2.59959,4.791356 -3.82288,7.64575 h 50.30903 V 50.750309 H 827.9118" id="path3508" style="font-style:normal;font-variant:normal;font-weight:normal;font-stretch:normal;font-size:447.761px;line-height:125%;font-family:'Roadgeek 2005 Series D';text-align:center;writing-mode:lr-tb;text-anchor:middle;fill:#ffffff;stroke-width:0.34151"/><path d="m 1012.3663,-0.32329847 c -10e-5,8.15550917 -0.9686,15.95416647 -2.9053,23.39599247 -1.9371,7.441886 -4.6895,13.456535 -8.2575,18.043968 -5.70885,7.645754 -13.96625,11.468626 -24.77219,11.468626 -7.238,0 -13.20169,-1.478176 -17.89106,-4.434534 -4.68942,-2.95635 -8.56325,-7.594768 -11.62153,-13.915264 -2.14082,-4.383541 -3.87385,-9.684589 -5.19911,-15.903157 -1.32528,-6.320448 -1.98791,-12.5389867 -1.98788,-18.65563147 -3e-5,-8.46123803 0.96844,-16.31086453 2.90537,-23.54890953 2.03885,-7.237895 4.79132,-13.303515 8.25742,-18.196883 3.05827,-3.873751 6.67724,-6.72816 10.85695,-8.563241 4.28158,-1.936817 9.37875,-2.905278 15.2915,-2.905384 6.52432,1.06e-4 12.08023,1.478281 16.66773,4.434536 4.58739,2.956454 8.5122,7.594869 11.7745,13.915265 2.1407,4.58753 3.8228,9.939551 5.0461,16.056073 1.2233,6.116665 1.8349,12.386172 1.835,18.80854353 m -16.20895,0 c -7e-5,-5.81071293 -0.50978,-11.16273353 -1.52915,-16.05607553 -1.0195,-4.995148 -2.54865,-9.225793 -4.58745,-12.691944 -1.63115,-2.650444 -3.51711,-4.587366 -5.65786,-5.810768 -2.03891,-1.223234 -4.5875,-1.936837 -7.64575,-2.14081 -3.97582,-0.203801 -7.28899,0.713691 -9.93947,2.752468 -2.65057,2.038952 -4.84235,5.352106 -6.57534,9.939476 -1.3253,3.058373 -2.34473,6.779301 -3.05831,11.162795 -0.61168,4.2816802 -0.91751,8.563295 -0.91748,12.84485853 -3e-5,5.50498727 0.50968,10.80603347 1.52915,15.90315747 1.0194,5.0972 2.54854,9.276871 4.58744,12.53903 1.63106,2.650549 3.56799,4.638439 5.81078,5.963687 2.24271,1.325278 4.99518,1.987908 8.2574,1.987891 3.77186,1.7e-5 6.88113,-1.019412 9.32782,-3.058298 2.54853,-2.038846 4.68932,-5.351999 6.42243,-9.939475 0.50965,-1.325233 1.01936,-2.905353 1.52914,-4.740361 0.50966,-1.936892 0.91743,-3.924786 1.22332,-5.963686 0.40771,-2.140769 0.71355,-4.2815787 0.91749,-6.4224295 0.20383,-2.140763 0.30577,-4.2306013 0.30584,-6.26951597" id="path3510" style="font-style:normal;font-variant:normal;font-weight:normal;font-stretch:normal;font-size:447.761px;line-height:125%;font-family:'Roadgeek 2005 Series D';text-align:center;writing-mode:lr-tb;text-anchor:middle;fill:#ffffff;stroke-width:0.34151"/><rect style="fill:#ffffff;fill-opacity:1;stroke:none;stroke-width:0.465;paint-order:markers fill stroke" id="rect936" width="20.913839" height="20.913839" x="909.81207" y="29.83647"/></g></g></svg>