<?xml version="1.0" encoding="UTF-8" standalone="no"?>
<svg xmlns="http://www.w3.org/2000/svg" xmlns:xlink="http://www.w3.org/1999/xlink" width="540" height="540" viewBox="0 0 142.875 142.87501">
  <defs>
    <linearGradient id="b">
      <stop offset="0" stop-color="#1568f4"/>
      <stop offset="1" stop-color="#fe545a"/>
    </linearGradient>
    <linearGradient id="a">
      <stop offset="0" stop-color="#1a6af3"/>
      <stop offset="1" stop-color="#4cf8d6"/>
    </linearGradient>
    <linearGradient xlink:href="#a" id="d" x1="108.47917" x2="34.395836" y1="23.8125" y2="23.8125" gradientTransform="scale(1 .22222)" gradientUnits="userSpaceOnUse"/>
    <linearGradient xlink:href="#b" id="c" x1="105.83334" x2="105.83334" y1="-8.8446426" y2="126.63921" gradientTransform="matrix(1 0 0 .77778 -.00000381 31.750001)" gradientUnits="userSpaceOnUse"/>
  </defs>
  <rect width="84.666672" height="112.71251" x="31.750002" y="24.870834" fill="url(#c)" ry="0"/>
  <path fill="url(#d)" d="M29.104168 2.6458335h79.375v22.225h-79.375z"/>
  <path fill="#fff" stroke="#d2d2d2" stroke-opacity=".882353" stroke-width=".26457974" d="m74.0833352 0-39.687501-.28389792C23.91402282-.35887782 13.89062561 4.63020845 9.26041716 9.2604169 4.63020871 13.89062535.01238881 23.91376167 0 34.3958342v79.375002c0 9.73154987 4.23333344 16.20572957 8.73125022 20.50520885 4.49791704 4.29947928 15.29100729 8.45463628 25.66458398 8.5989612l38.62916764.5374349 40.74583436-.5374349c9.83110729-.1296723 15.54420243-4.29950838 19.9759575-8.5989956 4.43175243-4.2994872 9.12822842-10.76035043 9.12821255-20.50517445l-.00007409-39.68757244.00007409-39.68742956c.00001852-10.43504628-4.3000349-20.35143486-8.59962266-24.95088841C129.9757932 4.84549224 123.44458255 1.18061822 113.7708362 0c-9.6737437-1.18061822-22.49002575.12301927-39.687501 0ZM34.9260354 21.29895887h73.15574305v3.77909756l-.53278353.50797937c-22.8848423 21.8326539-50.27218398 54.95785835-50.79483397 104.8711218l-3.43958342-.03514196c.52327441-49.97277088 27.39419702-83.56217888 50.22070664-105.68399008H34.9260354Z"/>
</svg>