<svg width="24" height="24" viewBox="0 0 24 24" fill="none" xmlns="http://www.w3.org/2000/svg">
<path d="M19.5948 2.49287C19.9854 2.10235 20.6186 2.10236 21.0091 2.49287C21.3996 2.8834 21.3996 3.5166 21.0091 3.90713L3.20714 21.7091C2.81661 22.0996 2.1834 22.0996 1.79288 21.7091C1.40237 21.3186 1.40237 20.6853 1.79288 20.2948L19.5948 2.49287Z" fill="black"/>
<path d="M18.5 8C19.879 8 21 9.121 21 10.5V18.5C21 19.879 19.879 21 18.5 21H5.50001C5.49073 21 5.48144 20.9997 5.47218 20.9996L18.4719 8H18.5Z" fill="black"/>
<path d="M12 1C14.0451 1 15.8541 2.02793 16.9377 3.59434L15.1191 5.41299C14.5395 4.27852 13.359 3.5 12 3.5C10.07 3.50001 8.50001 5.07001 8.50001 7V8H12.5321L3.00001 17.5321V10.5C3.00001 9.12101 4.12102 8.00001 5.50001 8H6.00001V7C6.00001 3.69101 8.69102 1.00001 12 1Z" fill="black"/>
</svg>
